<svg xmlns="http://www.w3.org/2000/svg" xmlns:xlink="http://www.w3.org/1999/xlink" preserveAspectRatio="xMidYMid" width="16" height="16" viewBox="0 0 16 16">
  <defs>
    <style>
      .cls-1 {
        fill: #888;
        fill-rule: evenodd;
      }
    </style>
  </defs>
  <path d="M8.707,8.000 L14.389,13.682 C14.584,13.877 14.584,14.194 14.389,14.389 C14.194,14.584 13.877,14.584 13.682,14.389 L8.000,8.707 L2.318,14.389 C2.123,14.584 1.806,14.584 1.611,14.389 C1.416,14.194 1.416,13.877 1.611,13.682 L7.293,8.000 L1.611,2.318 C1.416,2.123 1.416,1.806 1.611,1.611 C1.806,1.416 2.123,1.416 2.318,1.611 L8.000,7.293 L13.682,1.611 C13.877,1.416 14.194,1.416 14.389,1.611 C14.584,1.806 14.584,2.123 14.389,2.318 L8.707,8.000 Z" class="cls-1"/>
</svg>
